<svg xmlns="http://www.w3.org/2000/svg" xmlns:xlink="http://www.w3.org/1999/xlink" width="100" height="100" viewBox="0 0 100 100"><rect width="100%" height="100%" fill="#FFFFFF"></rect><g transform="translate(50 50) scale(0.69 0.69) rotate(0) translate(-50 -50)" style="fill:#3BB300"><svg fill="#3BB300" xmlns="http://www.w3.org/2000/svg" data-name="Layer 1" viewBox="0 0 100 100" x="0px" y="0px"><title>Media Player</title><path d="M53.84,91.86a42,42,0,1,1,38-38A42.08,42.08,0,0,1,53.84,91.86Zm.29-79.67A38,38,0,1,0,87.81,45.87,38.07,38.07,0,0,0,54.13,12.19Z"></path><path d="M44.89,66.31a4,4,0,0,1-2.77-1.11L27.45,51.15A4,4,0,0,1,33,45.37L44.84,56.73,67,34.84a4,4,0,0,1,5.62,5.69L47.7,65.16A4,4,0,0,1,44.89,66.31Z"></path></svg></g></svg>