<svg xmlns="http://www.w3.org/2000/svg" xmlns:xlink="http://www.w3.org/1999/xlink" width="100" height="100" viewBox="0 0 100 100"><rect width="100%" height="100%" fill="#FFFFFF"></rect><g transform="translate(50 50) scale(0.69 0.69) rotate(0) translate(-50 -50)" style="fill:#3BB300"><svg fill="#3BB300" xmlns="http://www.w3.org/2000/svg" xmlns:xlink="http://www.w3.org/1999/xlink" version="1.1" x="0px" y="0px" viewBox="0 0 512 512" style="enable-background:new 0 0 512 512;" xml:space="preserve"><g><path d="M452.1,459.7H59.9c-5.5,0-10,4.5-10,10s4.5,10,10,10h392.2c5.5,0,10-4.5,10-10S457.6,459.7,452.1,459.7z"></path><polygon points="82.7,363.5 181.6,336.3 109.8,264.5  "></polygon><rect x="127.5" y="150.2" transform="matrix(0.7071 -0.7071 0.7071 0.7071 -77.3702 229.3129)" width="221.3" height="115.7"></rect><path d="M406.7,121.3c9.5-9.5,9.5-25.1,0-34.6l-47.2-47.2c-4.6-4.6-10.8-7.2-17.3-7.2s-12.7,2.5-17.3,7.2l-35.2,35.2l81.8,81.8   L406.7,121.3z"></path></g></svg></g></svg>