<svg xmlns="http://www.w3.org/2000/svg" xmlns:xlink="http://www.w3.org/1999/xlink" width="100" height="100" viewBox="0 0 100 100"><rect width="100%" height="100%" fill="#FFFFFF"></rect><g transform="translate(50 50) scale(0.69 0.69) rotate(0) translate(-50 -50)" style="fill:#3BB300"><svg fill="#3BB300" xmlns:dc="http://purl.org/dc/elements/1.1/" xmlns:cc="http://creativecommons.org/ns#" xmlns:rdf="http://www.w3.org/1999/02/22-rdf-syntax-ns#" xmlns:svg="http://www.w3.org/2000/svg" xmlns="http://www.w3.org/2000/svg" xmlns:sodipodi="http://sodipodi.sourceforge.net/DTD/sodipodi-0.dtd" xmlns:inkscape="http://www.inkscape.org/namespaces/inkscape" viewBox="0 0 511.99998 511.99998" version="1.1" x="0px" y="0px"><g transform="translate(-91.214475,-152.15558)"><path style="opacity:1;fill:#3BB300;fill-opacity:1;fill-rule:nonzero;stroke:none;stroke-width:3;stroke-linecap:butt;stroke-linejoin:miter;stroke-miterlimit:4;stroke-dasharray:none;stroke-dashoffset:0;stroke-opacity:1" d="m 539.13155,158.15592 c -3.33586,0.0231 -6.68089,1.32506 -9.25445,3.89861 l -39.54122,39.54122 9.16289,9.1648 45.11259,45.11067 9.16289,9.16289 39.54121,-39.54312 c 5.14711,-5.14711 5.20613,-13.37716 0.1297,-18.45358 l -45.11258,-45.11067 c -2.53821,-2.53822 -5.86519,-3.79389 -9.20103,-3.77082 z m -61.01222,55.65639 -215.68855,215.68853 c -7.91966,28.69495 -13.72599,49.48234 -21.22305,76.44457 -1.75345,6.30603 1.9108,9.9703 8.21685,8.21685 28.18192,-7.81409 50.54258,-14.09467 76.44457,-21.22495 L 541.55769,277.24876 478.11933,213.81231 Z m -6.32477,27.29032 10.31684,10.31875 -185.70886,185.70885 -10.31683,-10.31874 185.70885,-185.70886 z m -287.13967,9.72365 c -48.44242,0 -87.440424,38.998 -87.440424,87.44042 l 0,232.4465 c 0,48.44242 38.998014,87.44233 87.440424,87.44233 l 232.44649,0 c 48.44244,0 87.44233,-38.99991 87.44233,-87.44233 l 0,-180.90615 -46.08341,46.08341 0,129.40778 c 0,25.91212 -20.86175,46.77388 -46.77388,46.77388 l -221.61467,0 c -25.9121,0 -46.77387,-20.86176 -46.77387,-46.77388 l 0,-221.61467 c 0,-25.91211 20.86176,-46.77388 46.77387,-46.77388 l 129.40397,0 46.08342,-46.08341 -180.90425,0 z m 89.5118,189.98895 39.93413,39.93413 -35.80473,9.59586 -13.72526,-13.72527 9.59586,-35.80472 z"></path></g></svg></g></svg>