<svg xmlns="http://www.w3.org/2000/svg" xmlns:xlink="http://www.w3.org/1999/xlink" width="100" height="100" viewBox="0 0 100 100"><rect width="100%" height="100%" fill="#FFFFFF"></rect><g transform="translate(50 50) scale(0.69 0.69) rotate(0) translate(-50 -50)" style="fill:#3BB300"><svg fill="#3BB300" xmlns="http://www.w3.org/2000/svg" data-name="Layer 1" viewBox="0 0 100 100" x="0px" y="0px"><title>07</title><path d="M61.49,17.3,19.06,59.72a3,3,0,0,0-.79,1.39L13,82.13a4,4,0,0,0,3.87,5,4.06,4.06,0,0,0,1-.12l21-5.25a3,3,0,0,0,1.39-.79L82.7,38.51A15,15,0,1,0,61.49,17.3ZM25.86,61.41,58.39,28.88,71.12,41.61,38.59,74.14ZM23,67,33,77,19.65,80.35ZM78.46,34.27l-3.1,3.1L62.63,24.64l3.1-3.1A9,9,0,1,1,78.46,34.27Z"></path></svg></g></svg>