<svg xmlns="http://www.w3.org/2000/svg" xmlns:xlink="http://www.w3.org/1999/xlink" width="100" height="100" viewBox="0 0 100 100"><rect width="100%" height="100%" fill="#FFFFFF"></rect><g transform="translate(50 50) scale(0.69 0.69) rotate(0) translate(-50 -50)" style="fill:#3BB300"><svg fill="#3BB300" xmlns="http://www.w3.org/2000/svg" data-name="Layer 1" viewBox="0 0 100 100" x="0px" y="0px"><title>Media Player</title><path d="M55.59,50l8.21-8.2a4,4,0,0,0-5.6-5.6L50,44.41,41.8,36.2a4,4,0,0,0-5.6,5.6L44.41,50,36.2,58.2a4,4,0,0,0,5.6,5.6L50,55.59l8.2,8.21a4,4,0,0,0,5.6-5.6Z"></path><path d="M50,92A42,42,0,1,1,92,50,42.08,42.08,0,0,1,50,92ZM50,12A38,38,0,1,0,88,50,38.07,38.07,0,0,0,50,12Z"></path></svg></g></svg>